{"title":"Robin Hood (1973)[BDrip 720p - H264 - Ita Eng Ac3 5.1 - SoftSub","uid":10009053,"size":3375475814,"categoryP":"video","categoryS":"hd___movies","magnet":"?xt=urn:btih:b52f30192a969eeaaba3e4a7dec82998feab38d9&amp;dn=Robin+Hood+%281973%29%5BBDrip+720p+-+H264+-+Ita+Eng+Ac3+5.1+-+SoftSub+&amp;tr=udp%3A%2F%2Ftracker.openbittorrent.com%3A80&amp;tr=udp%3A%2F%2Fopen.demonii.com%3A1337&amp;tr=udp%3A%2F%2Ftracker.coppersurfer.tk%3A6969&amp;tr=udp%3A%2F%2Fexodus.desync.com%3A6969","seeders":7,"leechers":0,"uploader":"kaimanov","files":1,"time":1398079524,"description":"\n\nRobin Hood\n\n40th Anniversary Edition\n\n(1973)\n &lt;a href=&quot;\nhttp://i.imgur.com/ZLMS9v9.jpg&quot; rel=&quot;nofollow&quot; target=&quot;_NEW&quot;&gt;\nhttp://i.imgur.com/ZLMS9v9.jpg&lt;/a&gt;\n\n------------------------------------------\n\nInfo File\n\nVideo: BDRip x264, 1200x720, 23.976 fps \nAudio: Ita Eng AC3 5.1\nSoftSub: Ita, Ita, Ita, Eng\n\n------------------------------------------\n\nInfo Film\n\nTitolo originale Robin Hood\nPaese USA\nAnno 1973 \nDurata 83 min \nGenere animazione \nRegia Wolfgang Reitherman\nSoggetto Larry Clemmons, Ken Anderson\nSceneggiatura Ken Anderson, Frank Thomas, Julius Svendsen, Vance Gerry, Eric Cleworth, Dave Michener\n\nArt Director Don Griffith\nProduttore Wolfgang Reitherman\nAnimatori Milt Kahl, Frank Thomas, Ollie Johnston, John Lounsbery, \nHal King, Art Stevens, Cliff Nordberg, Burny Mattinson, Eric Larson, Don Bluth, \nDale Baer, Fred Hellmich\nMontaggioTom Acosta, Jim Melton\nMusiche George Bruns\n\n[color=Purple]Scheda Tecnica\n[spoiler]\n\n\n* * * MediaInspector for Mac - Version 2.0.1, build 900\n* * * Â©2012 by Diego Massanti\n* * * MediaInfo Lib by Jerome Martinez\n* * * Raw File Report for \n\nRobin.Hood.40th.Anniversary.Edition.1973.ITA.ENG.BluRay.720p.x264-EgL.mkv\n\nGeneral\nUnique ID                        : 29803080871859275832509401422050955221 (0x166BDD55ADDFFA5650F31449B74D0FD5)\nComplete name                    : Robin.Hood.40th.Anniversary.Edition.1973.ITA.ENG.BluRay.720p.x264-EgL.mkv\nFormat                           : Matroska\nFile size                        : 3.14 GiB\nDuration                         : 1h 23mn\nOverall bit rate                 : 5 420 Kbps\nEncoded date                     : UTC 2014-04-06 13:41:45\nWriting application              : mkvmerge v5.7.0 ('The Whirlwind') built on Jul 15 2012 00:01:52\nWriting library                  : libebml v1.2.2 + libmatroska v1.3.0\n\nVideo\nID                               : 1\nFormat                           : AVC\nFormat/Info                      : Advanced Video Codec\nFormat profile                   : &lt;a class=&quot;__cf_email__&quot; href=&quot;/cdn-cgi/l/email-protection&quot; data-cfemail=&quot;c78faea0af878bf3e9f6&quot;&gt;[email&amp;#160;protected]&lt;/a&gt;&lt;script cf-hash='f9e31' type=&quot;text/javascript&quot;&gt;\n/* &lt;![CDATA[ */!function(){try{var t=&quot;currentScript&quot;in document?document.currentScript:function(){for(var t=document.getElementsByTagName(&quot;script&quot;),e=t.length;e--;)if(t[e].getAttribute(&quot;cf-hash&quot;))return t[e]}();if(t&amp;&amp;t.previousSibling){var e,r,n,i,c=t.previousSibling,a=c.getAttribute(&quot;data-cfemail&quot;);if(a){for(e=&quot;&quot;,r=parseInt(a.substr(0,2),16),n=2;a.length-n;n+=2)i=parseInt(a.substr(n,2),16)^r,e+=String.fromCharCode(i);e=document.createTextNode(e),c.parentNode.replaceChild(e,c)}}}catch(u){}}();/* ]]&gt; */&lt;/script&gt;\nFormat settings, CABAC           : Yes\nFormat settings, ReFrames        : 5 frames\nFormat settings, GOP             : M=4, N=24\nMuxing mode                      : Header stripping\nCodec ID                         : V_MPEG4/ISO/AVC\nDuration                         : 1h 23mn\nBit rate                         : 4 139 Kbps\nWidth                            : 1 200 pixels\nHeight                           : 720 pixels\nDisplay aspect ratio             : 1.667\nFrame rate                       : 23.976 fps\nColor space                      : YUV\nChroma subsampling               : 4:2:0\nBit depth                        : 8 bits\nScan type                        : Progressive\nBits/(Pixel*Frame)               : 0.200\nStream size                      : 2.34 GiB (74%)\nWriting library                  : x264 core 133 r2334 a3ac64b\nEncoding settings                : cabac=1 / ref=5 / deblock=1:0:0 / analyse=0x3:0x133 / me=umh / subme=10 / psy=1 / psy_rd=1.00:0.15 / mixed_ref=1 / me_range=32 / chroma_me=1 / trellis=2 / 8x8dct=1 / cqm=0 / deadzone=21,11 / fast_pskip=0 / chroma_qp_offset=-3 / threads=6 / lookahead_threads=1 / sliced_threads=0 / nr=0 / decimate=1 / interlaced=0 / bluray_compat=0 / constrained_intra=0 / bframes=3 / b_pyramid=2 / b_adapt=2 / b_bias=0 / direct=3 / weightb=1 / open_gop=0 / weightp=2 / keyint=240 / keyint_min=23 / scenecut=40 / intra_refresh=0 / rc=2pass / mbtree=0 / bitrate=4139 / ratetol=2.0 / qcomp=0.60 / qpmin=10 / qpmax=51 / qpstep=4 / cplxblur=20.0 / qblur=0.5 / ip_ratio=1.40 / pb_ratio=1.00 / aq=1:1.00\nLanguage                         : English\n\nAudio #1\nID                               : 2\nFormat                           : AC-3\nFormat/Info                      : Audio Coding 3\nMode extension                   : CM (complete main)\nMuxing mode                      : Header stripping\nCodec ID                         : A_AC3\nDuration                         : 1h 23mn\nBit rate mode                    : Constant\nBit rate                         : 640 Kbps\nChannel(s)                       : 6 channels\nChannel positions                : Front: L C R, Side: L R, LFE\nSampling rate                    : 48.0 KHz\nBit depth                        : 16 bits\nCompression mode                 : Lossy\nStream size                      : 380 MiB (12%)\nTitle                            : Italiano | AC3\nLanguage                         : Italian\n\nAudio #2\nID                               : 3\nFormat                           : AC-3\nFormat/Info                      : Audio Coding 3\nMode extension                   : CM (complete main)\nMuxing mode                      : Header stripping\nCodec ID                         : A_AC3\nDuration                         : 1h 23mn\nBit rate mode                    : Constant\nBit rate                         : 640 Kbps\nChannel(s)                       : 6 channels\nChannel positions                : Front: L C R, Side: L R, LFE\nSampling rate                    : 48.0 KHz\nBit depth                        : 16 bits\nCompression mode                 : Lossy\nStream size                      : 380 MiB (12%)\nTitle                            : Inglese | AC3\nLanguage                         : English\n\nText #1\nID                               : 4\nFormat                           : UTF-8\nCodec ID                         : S_TEXT/UTF8\nCodec ID/Info                    : UTF-8 Plain Text\nTitle                            : Italiano | FORCED\nLanguage                         : Italian\n\nText #2\nID                               : 5\nFormat                           : UTF-8\nCodec ID                         : S_TEXT/UTF8\nCodec ID/Info                    : UTF-8 Plain Text\nTitle                            : Italiano | Canzoni\nLanguage                         : Italian\n\nText #3\nID                               : 6\nFormat                           : UTF-8\nCodec ID                         : S_TEXT/UTF8\nCodec ID/Info                    : UTF-8 Plain Text\nTitle                            : Italiano\nLanguage                         : Italian\n\nText #4\nID                               : 7\nFormat                           : UTF-8\nCodec ID                         : S_TEXT/UTF8\nCodec ID/Info                    : UTF-8 Plain Text\nTitle                            : Inglese\nLanguage                         : English\n\n\n[/spoiler]\n\n\n\n","torrent":{"xt":"urn:btih:b52f30192a969eeaaba3e4a7dec82998feab38d9","amp;dn":"Robin+Hood+%281973%29%5BBDrip+720p+-+H264+-+Ita+Eng+Ac3+5.1+-+SoftSub+","amp;tr":["udp%3A%2F%2Ftracker.openbittorrent.com%3A80","udp%3A%2F%2Fopen.demonii.com%3A1337","udp%3A%2F%2Ftracker.coppersurfer.tk%3A6969","udp%3A%2F%2Fexodus.desync.com%3A6969"],"infoHash":"b52f30192a969eeaaba3e4a7dec82998feab38d9","infoHashBuffer":{"type":"Buffer","data":[181,47,48,25,42,150,158,234,171,163,228,167,222,200,41,152,254,171,56,217]},"announce":[],"urlList":[]}}